<svg xmlns="http://www.w3.org/2000/svg" id="svg-sprite" width="0" height="0"><symbol viewBox="0 0 32 32" id="circle"><path d="M24 16a8 8 0 1 1-16 0 8 8 0 0 1 16 0z"/></symbol><symbol viewBox="0 0 16 16" id="remove"><path d="M15.854 12.854L11 8l4.854-4.854a.503.503 0 0 0 0-.707L13.56.146a.5.5 0 0 0-.706 0L8 5 3.146.146a.5.5 0 0 0-.707 0L.146 2.44a.5.5 0 0 0 0 .706L5 8 .146 12.854a.5.5 0 0 0 0 .707l2.293 2.293a.5.5 0 0 0 .706 0L8 11l4.854 4.854a.5.5 0 0 0 .707 0l2.293-2.293a.5.5 0 0 0 0-.706z"/></symbol></svg>